<svg id="Layer_1" data-name="Layer 1" xmlns="http://www.w3.org/2000/svg" viewBox="0 0 216 208"><defs><style>.cls-1{fill:#009688;}.cls-2{fill:#fff;}</style></defs><title>A</title><ellipse class="cls-1" cx="108" cy="104" rx="108" ry="104"/><path class="cls-2" d="M194.91,131.2h14.76a6,6,0,0,1,5.63,4l30.47,86.14a6,6,0,0,1-5.63,8h-9.42a6,6,0,0,1-5.69-4.15l-3.81-11.87a6,6,0,0,0-5.69-4.15H188.1a6,6,0,0,0-5.67,4.1l-3.94,12a6,6,0,0,1-5.67,4.1h-8.64a6,6,0,0,1-5.63-8l30.75-86.14A6,6,0,0,1,194.91,131.2Zm2.7,61h8.67a6,6,0,0,0,5.69-7.8l-4.28-13.32a6,6,0,0,0-11.36,0l-4.39,13.32A6,6,0,0,0,197.61,192.22Z" transform="translate(-94.15 -79.24)"/></svg>