<svg id="Layer_1" data-name="Layer 1" xmlns="http://www.w3.org/2000/svg" viewBox="0 0 216 208"><defs><style>.cls-1{fill:#009688;}.cls-2{fill:#fff;}</style></defs><title>B</title><ellipse class="cls-1" cx="108" cy="104" rx="108" ry="104"/><path class="cls-2" d="M233.75,140.72a26.54,26.54,0,0,1,4.39,15.36q0,9.21-4.43,14.81-.31.39-.66.78a6.39,6.39,0,0,0,.47,9.15,20.31,20.31,0,0,1,3.94,4.68,27.68,27.68,0,0,1,3.73,14.74,30.58,30.58,0,0,1-4.26,16,27.32,27.32,0,0,1-6.77,7.92,25.74,25.74,0,0,1-10.81,5.05,63,63,0,0,1-13.51,1.37H169a6.3,6.3,0,0,1-6.3-6.3v-88A6.3,6.3,0,0,1,169,130H209Q226.45,130.27,233.75,140.72Zm-51.93,13.05v9.59a6.3,6.3,0,0,0,6.3,6.3h16.95q6.23,0,10.11-2.49t3.89-8.84q0-7-5.14-9.28a34.38,34.38,0,0,0-11.3-1.57H188.12A6.3,6.3,0,0,0,181.82,153.77Zm0,38.84v14.23a6.3,6.3,0,0,0,6.3,6.3H205q6.22,0,9.68-1.77Q221,208.08,221,198.8q0-7.85-6.09-10.78-3.4-1.64-9.56-1.71H188.12A6.3,6.3,0,0,0,181.82,192.61Z" transform="translate(-93.97 -79.24)"/></svg>