<svg id="Layer_1" data-name="Layer 1" xmlns="http://www.w3.org/2000/svg" viewBox="0 0 216 208"><defs><style>.cls-1{fill:#009688;}.cls-2{fill:#fff;}</style></defs><title>C</title><ellipse class="cls-1" cx="108" cy="104" rx="108" ry="104"/><path class="cls-2" d="M172,146q11.18-11.43,28.45-11.43,23.11,0,33.79,15.32a42.68,42.68,0,0,1,2.82,4.71,8.67,8.67,0,0,1-7.77,12.55h-1.93a8.64,8.64,0,0,1-7.92-5.15,19.72,19.72,0,0,0-2.95-4.9q-5.17-6-15.32-6a18.87,18.87,0,0,0-16.3,8.51q-6,8.51-6,24.08T185.2,207a19.73,19.73,0,0,0,16,7.75q10,0,15.17-6.66a21.62,21.62,0,0,0,3.05-5.44,8.6,8.6,0,0,1,8-5.3h1.36a8.64,8.64,0,0,1,7.95,12.16,39.48,39.48,0,0,1-9,12.45q-10.22,9.48-26.18,9.48-19.75,0-31.06-12.81T159.13,183.4Q159.13,159.16,172,146Z" transform="translate(-93.97 -79.24)"/></svg>