<svg id="Layer_1" data-name="Layer 1" xmlns="http://www.w3.org/2000/svg" viewBox="0 0 216 208"><defs><style>.cls-1{fill:#009688;}.cls-2{fill:#fff;}</style></defs><title>D</title><ellipse class="cls-1" cx="108" cy="104" rx="108" ry="104"/><path class="cls-2" d="M218.19,135a33.1,33.1,0,0,1,17.07,12.71,44.56,44.56,0,0,1,7.14,16.17,77.55,77.55,0,0,1,1.9,16.58q0,20-8,33.84Q225.4,233,202.68,233h-34a9.21,9.21,0,0,1-9.21-9.21V142a9.21,9.21,0,0,1,9.21-9.21h34A52.74,52.74,0,0,1,218.19,135Zm-38.37,24.43v47A9.21,9.21,0,0,0,189,215.6h10.12q14.84,0,20.69-14.61A51.46,51.46,0,0,0,223,181.9q0-15.29-4.8-23.48t-19.09-8.19H189A9.21,9.21,0,0,0,179.82,159.44Z" transform="translate(-93.97 -79.24)"/></svg>