<svg id="Layer_1" data-name="Layer 1" xmlns="http://www.w3.org/2000/svg" viewBox="0 0 216 208"><defs><style>.cls-1{fill:#009688;}.cls-2{fill:#fff;}</style></defs><title>E</title><ellipse class="cls-1" cx="108" cy="104" rx="108" ry="104"/><path class="cls-2" d="M226.08,151.35H190.81a8.62,8.62,0,0,0-8.62,8.62v3.84a8.62,8.62,0,0,0,8.62,8.62h31a8.62,8.62,0,0,1,8.62,8.62h0a8.62,8.62,0,0,1-8.62,8.62h-31a8.62,8.62,0,0,0-8.62,8.62v8.28a8.62,8.62,0,0,0,8.62,8.62h37.7a8.62,8.62,0,0,1,8.62,8.62v.61a8.62,8.62,0,0,1-8.62,8.62h-58a8.62,8.62,0,0,1-8.62-8.62v-82a8.62,8.62,0,0,1,8.62-8.62h55.54a8.62,8.62,0,0,1,8.62,8.62v.34A8.62,8.62,0,0,1,226.08,151.35Z" transform="translate(-93.97 -79.24)"/></svg>